<svg xmlns="http://www.w3.org/2000/svg" xmlns:xlink="http://www.w3.org/1999/xlink" id="Layer_1" x="0px" y="0px" viewBox="0 0 84.4 46.7" style="enable-background:new 0 0 84.4 46.7;" xml:space="preserve">
<style type="text/css">
	.st0{fill-rule:evenodd;clip-rule:evenodd;}
	.st1{fill:none;stroke:#4285F6;stroke-width:0.25;stroke-linejoin:round;stroke-miterlimit:10;}
</style>
<path class="st0" d="M31.4,14.8l-0.7,0l-0.6-8.2l0.7,0C31,9.4,31.2,12.1,31.4,14.8z"></path>
<path class="st0" d="M39,7.2l-0.1,0.7L30.4,7l0.1-0.7C33.3,6.6,36.2,6.9,39,7.2z"></path>
<rect x="23.6" y="9.1" transform="matrix(0.7249 -0.6888 0.6888 0.7249 1.1038 21.5892)" class="st0" width="7.9" height="0.7"></rect>
<path class="st0" d="M30.7,6.5l-0.5,0.5l-4.8-5.1l0.5-0.5C27.5,3,29.1,4.7,30.7,6.5z"></path>
<path class="st0" d="M30.5,7.9c0.7,0.1,1.4-0.5,1.4-1.2C32,6,31.4,5.4,30.7,5.3c-0.7-0.1-1.4,0.5-1.4,1.2  C29.2,7.2,29.7,7.8,30.5,7.9z"></path>
<path class="st0" d="M25.3,12.2l-0.4,0.5l-6.5-5.5l0.4-0.5C20.8,8.4,23.2,10.5,25.3,12.2z"></path>
<rect x="17.6" y="3.9" transform="matrix(0.7943 -0.6075 0.6075 0.7943 1.9609 14.2986)" class="st0" width="8.9" height="0.7"></rect>
<path class="st0" d="M18.6,6.6l-0.1,0.6l-7.2-1.5l0.1-0.6C13.8,5.6,16.2,6.1,18.6,6.6z"></path>
<rect x="12.7" y="10.9" transform="matrix(0.312 -0.9501 0.9501 0.312 1.18 24.016)" class="st0" width="8.9" height="0.7"></rect>
<path class="st0" d="M18.6,8.2C19.3,8.3,19.9,7.7,20,7c0.1-0.7-0.5-1.4-1.2-1.4c-0.7-0.1-1.4,0.5-1.4,1.2  C17.3,7.5,17.8,8.1,18.6,8.2z"></path>
<rect x="12.9" y="11.1" transform="matrix(0.4 -0.9165 0.9165 0.4 -5.1745 20.7704)" class="st0" width="0.7" height="6.4"></rect>
<rect x="7" y="8.9" transform="matrix(0.136 -0.9907 0.9907 0.136 0.1972 18.759)" class="st0" width="7.6" height="0.7"></rect>
<rect x="3.8" y="13.7" transform="matrix(0.959 -0.2832 0.2832 0.959 -3.6747 2.5903)" class="st0" width="6.7" height="0.7"></rect>
<rect x="11.2" y="12.9" transform="matrix(0.9622 -0.2723 0.2723 0.9622 -4.304 3.8077)" class="st0" width="0.7" height="9.1"></rect>
<path class="st0" d="M10.3,14.3c0.7,0.1,1.4-0.5,1.4-1.2c0.1-0.7-0.5-1.4-1.2-1.4c-0.7-0.1-1.4,0.5-1.4,1.2  C9.1,13.6,9.6,14.2,10.3,14.3z"></path>
<rect x="8.5" y="17.6" transform="matrix(3.603131e-02 -0.9994 0.9994 3.603131e-02 -13.102 29.6671)" class="st0" width="0.7" height="8"></rect>
<rect x="4.1" y="14.9" transform="matrix(0.9896 -0.1436 0.1436 0.9896 -2.57 0.8176)" class="st0" width="0.7" height="6.6"></rect>
<rect x="-0.2" y="25.3" transform="matrix(0.2251 -0.9743 0.9743 0.2251 -21.9003 23.6555)" class="st0" width="8.2" height="0.7"></rect>
<rect x="8.6" y="19.3" transform="matrix(0.5074 -0.8617 0.8617 0.5074 -16.2983 19.5247)" class="st0" width="0.7" height="9.5"></rect>
<path class="st0" d="M4.7,22.8c0.7,0.1,1.4-0.5,1.4-1.2c0.1-0.7-0.5-1.4-1.2-1.4s-1.4,0.5-1.4,1.2C3.5,22.1,4,22.7,4.7,22.8z"></path>
<rect x="10.2" y="31.8" transform="matrix(0.8756 -0.4831 0.4831 0.8756 -13.8804 10.3182)" class="st0" width="5.9" height="0.7"></rect>
<rect x="9.3" y="34.2" transform="matrix(0.9918 -0.1282 0.1282 0.9918 -4.6668 1.5364)" class="st0" width="0.7" height="5.7"></rect>
<rect x="5.8" y="28" transform="matrix(0.5953 -0.8035 0.8035 0.5953 -23.1473 17.8222)" class="st0" width="0.7" height="7.8"></rect>
<rect x="6.7" y="29.7" transform="matrix(0.4365 -0.8997 0.8997 0.4365 -20.7262 27.0619)" class="st0" width="9.2" height="0.7"></rect>
<path class="st0" d="M9,36.6c1.3,0.1,2.5-0.9,2.6-2.2c0.1-1.3-0.9-2.5-2.2-2.6C8.1,31.7,7,32.7,6.8,34C6.7,35.3,7.7,36.5,9,36.6z"></path>
<path class="st0" d="M18.6,40.5l-0.6,0.2l-2.6-9.9l0.6-0.2C16.8,33.9,17.7,37.2,18.6,40.5z"></path>
<rect x="17" y="36.9" transform="matrix(0.7489 -0.6627 0.6627 0.7489 -19.162 23.9457)" class="st0" width="10" height="0.7"></rect>
<path class="st0" d="M22.6,44.8l-0.5,0.4L18,40.8l0.5-0.4C19.9,41.8,21.2,43.3,22.6,44.8z"></path>
<path class="st0" d="M18.3,40.2l-0.1,0.7l-8.8-0.8l0.1-0.7C12.3,39.7,15.5,40,18.3,40.2z"></path>
<path class="st0" d="M18.3,41.8c0.7,0.1,1.4-0.5,1.4-1.2s-0.5-1.4-1.2-1.4c-0.7-0.1-1.4,0.5-1.4,1.2C17,41.1,17.5,41.7,18.3,41.8z"></path>
<path class="st1" d="M18.3,41.8c0.7,0.1,1.4-0.5,1.4-1.2s-0.5-1.4-1.2-1.4c-0.7-0.1-1.4,0.5-1.4,1.2C17,41.1,17.5,41.7,18.3,41.8z"></path>
<path class="st0" d="M30.5,38.8L30,39.2l-4.5-5.1l0.5-0.4C27.5,35.4,29,37.1,30.5,38.8z"></path>
<path class="st0" d="M39.4,38.8l-9.1,0.5l0-0.7l9.1-0.5C39.3,38.4,39.4,38.6,39.4,38.8z"></path>
<rect x="21.4" y="41.7" transform="matrix(0.7962 -0.6051 0.6051 0.7962 -20.0424 24.4861)" class="st0" width="9.9" height="0.7"></rect>
<path class="st0" d="M30.3,40.2c0.7,0.1,1.4-0.5,1.4-1.2c0.1-0.7-0.5-1.4-1.2-1.4c-0.7-0.1-1.4,0.5-1.4,1.2  C29,39.5,29.6,40.2,30.3,40.2z"></path>
<path d="M82.5,18.3c0.1,0,0.2,0,0.2,0c0.1,0,0.1-0.1,0.2-0.1c0.1,0,0.1-0.1,0.1-0.2c0-0.1,0-0.1,0-0.2c0-0.1,0-0.1,0-0.2  c0-0.1-0.1-0.1-0.1-0.1c0,0-0.1-0.1-0.2-0.1c-0.1,0-0.1-0.1-0.2-0.1c0,0,0,0-0.1,0c0,0,0,0-0.1,0c0,0,0,0-0.1,0c0,0,0,0,0,0  c0,0,0,0,0-0.1c0,0,0.1,0,0.1,0c0,0,0.1,0,0.1,0c0,0,0.1,0,0.1,0.1c0,0,0,0,0,0c0,0,0,0,0,0c0,0,0,0,0,0c0,0,0,0,0,0  c0,0,0.1-0.1,0.1-0.1c0,0,0.1-0.1,0.1-0.1c0,0,0,0,0,0c0,0,0,0,0,0c0,0-0.1-0.1-0.1-0.1c0,0-0.1-0.1-0.1-0.1c0,0-0.1,0-0.1,0  c0,0-0.1,0-0.1,0c-0.1,0-0.2,0-0.2,0c-0.1,0-0.1,0.1-0.2,0.1c0,0-0.1,0.1-0.1,0.1c0,0.1,0,0.1,0,0.2c0,0.1,0,0.1,0,0.2  c0,0.1,0,0.1,0.1,0.1c0,0,0.1,0.1,0.1,0.1c0.1,0,0.1,0.1,0.2,0.1c0,0,0.1,0,0.1,0s0,0,0.1,0c0,0,0,0,0,0c0,0,0,0,0,0.1  c0,0,0,0,0,0.1c0,0,0,0-0.1,0c0,0,0,0-0.1,0c0,0,0,0-0.1,0c0,0,0,0,0,0c0,0,0,0-0.1,0c0,0,0,0-0.1,0c0,0,0,0-0.1-0.1c0,0,0,0-0.1,0  c0,0,0,0-0.1,0L82,17.9c0,0,0,0,0,0c0,0,0,0,0,0c0,0,0,0,0,0c0,0,0,0,0,0c0,0,0.1,0.1,0.1,0.1c0,0,0.1,0.1,0.1,0.1c0,0,0.1,0,0.1,0  C82.4,18.3,82.5,18.3,82.5,18.3z M80.8,18.3c0.1,0,0.1,0,0.2,0c0.1,0,0.1,0,0.1-0.1c0,0,0.1,0,0.1-0.1c0,0,0-0.1,0.1-0.1l0,0.1  c0,0,0,0,0,0c0,0,0,0,0,0c0,0,0,0,0,0c0,0,0,0,0,0h0.2c0,0,0,0,0,0c0,0,0,0,0,0l0,0c0,0,0,0,0,0c0,0,0,0,0,0v-1.3c0,0,0-0.1,0-0.1  c0,0,0,0-0.1,0h-0.3c0,0,0,0,0,0c0,0,0,0,0,0c0,0,0,0,0,0c0,0,0,0,0,0v0.8c0,0,0,0.1,0,0.1c0,0,0,0.1-0.1,0.1c0,0-0.1,0-0.1,0  c0,0-0.1,0-0.1,0c0,0-0.1,0-0.1,0c0,0-0.1,0-0.1-0.1c0,0,0-0.1-0.1-0.1c0,0,0-0.1,0-0.1v-0.8c0,0,0-0.1,0-0.1c0,0,0,0-0.1,0h-0.3  c0,0-0.1,0-0.1,0c0,0,0,0,0,0.1v0.8c0,0.1,0,0.2,0,0.3c0,0.1,0.1,0.2,0.1,0.2c0,0.1,0.1,0.1,0.2,0.1C80.6,18.3,80.7,18.3,80.8,18.3z   M79.9,18.3C79.9,18.3,79.9,18.3,79.9,18.3C80,18.2,80,18.2,79.9,18.3l0.1-1.9c0,0,0,0,0,0c0,0,0,0,0,0c0,0,0,0,0,0c0,0,0,0,0,0  h-0.3c0,0-0.1,0-0.1,0c0,0,0,0,0,0.1v1.8c0,0,0,0.1,0,0.1c0,0,0,0,0.1,0H79.9z M78.6,17.3h-0.3v-0.4h0.3c0,0,0.1,0,0.1,0  c0,0,0,0,0.1,0c0,0,0,0,0,0.1c0,0,0,0,0,0.1c0,0,0,0.1,0,0.1c0,0,0,0,0,0.1C78.8,17.2,78.7,17.2,78.6,17.3  C78.7,17.3,78.7,17.3,78.6,17.3z M78.3,18.3C78.4,18.3,78.4,18.2,78.3,18.3l0.1-0.6h0.4c0.1,0,0.2,0,0.2-0.1c0.1,0,0.1-0.1,0.2-0.1  c0-0.1,0.1-0.1,0.1-0.2c0-0.1,0-0.1,0-0.2c0,0,0-0.1,0-0.1c0,0,0-0.1-0.1-0.1c0,0-0.1-0.1-0.1-0.1c0,0-0.1-0.1-0.1-0.1  c0,0-0.1,0-0.1-0.1c0,0-0.1,0-0.2,0H78c0,0,0,0,0,0c0,0,0,0,0,0v1.7c0,0,0,0,0,0c0,0,0,0,0,0H78.3z"></path>
<path class="st0" d="M77,12.7h2.8c0.1,0,0.2,0.1,0.2,0.2v2.8c0,0.1-0.1,0.2-0.2,0.2H77c-0.1,0-0.2-0.1-0.2-0.2v-2.8  C76.8,12.8,76.9,12.7,77,12.7z"></path>
<path class="st0" d="M73.8,15.9h2.8c0.1,0,0.2,0.1,0.2,0.2v2.8c0,0.1-0.1,0.2-0.2,0.2h-2.8c-0.1,0-0.2-0.1-0.2-0.2V16  C73.7,15.9,73.7,15.9,73.8,15.9z"></path>
<path class="st0" d="M77,19h2.8c0.1,0,0.2,0.1,0.2,0.2V22c0,0.1-0.1,0.2-0.2,0.2H77c-0.1,0-0.2-0.1-0.2-0.2v-2.8  C76.8,19.1,76.9,19,77,19z"></path>
<path class="st0" d="M30.1,29.2c-1.5,1.7-3.8,2.7-6.2,2.7c-4.7,0-8.5-3.8-8.5-8.4s3.8-8.4,8.5-8.4c2.4,0,4.5,1,6.1,2.5l-3,3  c-0.8-0.8-1.9-1.3-3.1-1.3c-2.3,0-4.2,1.9-4.2,4.2s1.9,4.2,4.2,4.2c1.3,0,2.4-0.6,3.2-1.4L30.1,29.2z"></path>
<path class="st0" d="M24,2.1c-0.9,0-1.8,0.1-2.7,0.2c-1.7,0.2-3.5,0.7-5.1,1.3c-0.8,0.3-1.6,0.7-2.4,1.1c-0.5,0.2-0.9,0.5-1.3,0.8  c-0.6,0.4-1.1,0.8-1.7,1.2c-0.3,0.3-0.7,0.5-1,0.8c0,0-0.1,0-0.1,0.1C9.5,7.8,9.3,7.9,9.1,8.1C8.7,8.5,8.3,8.9,8,9.3  c-0.2,0.3-0.5,0.6-0.7,0.8c-0.5,0.7-1,1.4-1.5,2.1c-0.3,0.4-0.5,0.9-0.7,1.3c-0.3,0.5-0.5,1-0.7,1.5c-0.4,0.9-0.7,1.8-1,2.7  c-0.2,0.6-0.3,1.2-0.4,1.7c-0.1,0.7-0.2,1.4-0.3,2.1c-0.1,0.7-0.1,1.5-0.1,2.2c0,0.7,0.1,1.3,0.1,2c0.1,0.6,0.1,1.1,0.3,1.7  c0.1,0.5,0.2,1.1,0.4,1.6c0.2,0.7,0.4,1.4,0.7,2c0.2,0.6,0.5,1.1,0.7,1.6c0.2,0.5,0.5,1,0.8,1.4c0.2,0.3,0.4,0.6,0.6,0.9  c0.2,0.3,0.4,0.6,0.6,0.9c0.4,0.5,0.8,1,1.2,1.5c0.4,0.5,0.8,0.9,1.3,1.3c0.3,0.3,0.6,0.5,0.8,0.8c0.2,0.2,0.5,0.4,0.7,0.6  c0.3,0.2,0.5,0.4,0.8,0.6c0.2,0.2,0.4,0.3,0.7,0.4c0.3,0.2,0.5,0.3,0.8,0.5c0.2,0.1,0.4,0.2,0.6,0.4c0.3,0.2,0.6,0.3,0.9,0.5  c0.2,0.1,0.5,0.2,0.7,0.3c0.3,0.1,0.5,0.2,0.8,0.3c0.2,0.1,0.4,0.1,0.5,0.2c0.2,0.1,0.5,0.2,0.7,0.3c0.3,0.1,0.6,0.2,0.8,0.3  c0.2,0.1,0.4,0.1,0.7,0.2c0.2,0.1,0.5,0.1,0.7,0.2c0.4,0.1,0.8,0.2,1.2,0.2c0.3,0.1,0.7,0.1,1,0.1c0.5,0.1,1,0.1,1.5,0.1  c0.3,0,0.7,0,1,0c0.3,0,0.5,0,0.8,0c0.3,0,0.6,0,0.9-0.1c0.3,0,0.5-0.1,0.8-0.1c0.4,0,0.7-0.1,1.1-0.2c0.7-0.1,1.4-0.3,2.1-0.5  c0.4-0.1,0.8-0.3,1.3-0.4c0.5-0.2,1-0.4,1.4-0.6c0.3-0.1,0.7-0.3,1-0.5c0.4-0.2,0.8-0.4,1.2-0.7c0.4-0.2,0.8-0.5,1.1-0.7  c0.2-0.2,0.5-0.3,0.7-0.5c0.1-0.1,0.2-0.2,0.3-0.2c0.1-0.1,0.3-0.2,0.4-0.3c0,0,0.1-0.1,0.1-0.1l0,0c0.2-0.2,0.4-0.4,0.7-0.6  c0.1-0.1,0.2-0.2,0.3-0.3c0.1-0.1,0.3-0.2,0.4-0.4c0,0,0.1-0.1,0.1-0.1l0,0l0,0l-7.1-6.9c-0.3,0.2-0.5,0.5-0.8,0.7l0,0  c-0.4,0.3-0.8,0.6-1.2,0.8c-0.1,0.1-0.2,0.1-0.4,0.2c-0.1,0-0.1,0.1-0.2,0.1l0,0c-0.2,0.1-0.3,0.2-0.5,0.3c-0.3,0.1-0.6,0.2-0.8,0.3  c-0.1,0.1-0.3,0.1-0.4,0.1c-0.2,0.1-0.4,0.1-0.7,0.2c-0.2,0.1-0.5,0.1-0.7,0.2c-0.2,0-0.3,0.1-0.5,0.1l0,0c-0.2,0-0.5,0.1-0.7,0.1  c-0.2,0-0.3,0-0.5,0c-0.3,0-0.5,0-0.8,0c-0.2,0-0.4,0-0.6,0c-0.1,0-0.2,0-0.2,0l0,0c-0.3,0-0.7-0.1-1-0.1c-0.4-0.1-0.9-0.2-1.3-0.3  c-0.4-0.1-0.7-0.3-1.1-0.4c-0.2-0.1-0.4-0.2-0.6-0.3l0,0c-0.2-0.1-0.5-0.2-0.7-0.4c-0.2-0.1-0.4-0.2-0.5-0.3l0,0c0,0,0,0,0,0l0,0  c-0.1-0.1-0.2-0.1-0.3-0.2c-0.4-0.3-0.7-0.5-1-0.8c-0.2-0.2-0.4-0.3-0.5-0.5c-0.3-0.3-0.5-0.6-0.7-0.9c-0.2-0.3-0.5-0.6-0.7-0.9  c-0.2-0.3-0.4-0.7-0.6-1c-0.2-0.4-0.3-0.7-0.5-1.1c-0.1-0.4-0.3-0.7-0.4-1.1c-0.1-0.4-0.2-0.7-0.2-1.1c0-0.3-0.1-0.5-0.1-0.8  c0-0.3,0-0.6,0-0.8c0-0.1,0-0.2,0-0.3c0-0.3,0-0.6,0-0.9c0-0.3,0.1-0.6,0.1-0.9c0.1-0.4,0.2-0.8,0.3-1.2c0.2-0.5,0.3-1.1,0.6-1.6  c0.2-0.4,0.4-0.8,0.6-1.1c0.1-0.2,0.3-0.4,0.4-0.6c0.2-0.3,0.4-0.5,0.6-0.8c0.4-0.5,0.8-0.9,1.2-1.3c0.7-0.6,1.4-1.1,2.2-1.6  c0.7-0.4,1.5-0.7,2.3-0.9c0.9-0.3,1.8-0.4,2.7-0.5c0.6,0,1.1,0,1.7,0c0.9,0.1,1.8,0.3,2.6,0.6c0.4,0.1,0.7,0.3,1.1,0.4  c0.7,0.3,1.4,0.7,2,1.2c0.3,0.2,0.5,0.4,0.8,0.6l6.9-7.1c-0.1-0.1-0.3-0.3-0.4-0.4c-0.1-0.1-0.3-0.2-0.4-0.4  c-0.2-0.1-0.3-0.3-0.5-0.4c-0.5-0.4-1.1-0.8-1.7-1.2c-0.5-0.3-0.9-0.6-1.4-0.8c-0.7-0.4-1.3-0.7-2-0.9C31,3.3,30.2,3,29.3,2.8  c-0.8-0.2-1.6-0.4-2.5-0.5C25.9,2.2,24.9,2.1,24,2.1L24,2.1z M24,1c0.9,0,1.9,0.1,2.8,0.2c0.8,0.1,1.6,0.3,2.4,0.4  C30,1.8,30.8,2,31.5,2.3c0.8,0.3,1.6,0.6,2.3,1c0.4,0.2,0.9,0.4,1.3,0.7c0.3,0.2,0.6,0.4,1,0.6c0.4,0.3,0.8,0.5,1.2,0.8  C37.5,5.6,37.8,5.8,38,6c0.2,0.1,0.3,0.3,0.5,0.4c0.2,0.2,0.4,0.3,0.5,0.5c0.2,0.2,0.3,0.3,0.5,0.5l0,0L40,7.7l-8.4,8.7  c-0.1-0.1-0.3-0.3-0.4-0.4c-0.3-0.2-0.5-0.5-0.8-0.7c-0.6-0.5-1.2-0.9-1.9-1.2c-0.7-0.4-1.5-0.6-2.3-0.8c-0.6-0.1-1.1-0.2-1.7-0.2  c-0.4,0-0.7,0-1.1,0c-0.5,0-1,0.1-1.5,0.2c-0.5,0.1-0.9,0.2-1.4,0.4c-0.5,0.2-1,0.4-1.5,0.7c-0.4,0.2-0.7,0.4-1.1,0.7  c-0.4,0.3-0.7,0.6-1.1,0.9c-0.3,0.3-0.7,0.7-1,1.1c-0.3,0.3-0.5,0.7-0.7,1c-0.2,0.3-0.3,0.5-0.5,0.8c-0.2,0.3-0.3,0.7-0.4,1  c-0.1,0.2-0.1,0.4-0.2,0.6c-0.1,0.4-0.2,0.7-0.3,1.1c-0.1,0.6-0.2,1.2-0.2,1.8c0,0,0,0.1,0,0.1v0c0,0.2,0,0.4,0,0.6  c0,0.2,0,0.3,0,0.5c0,0.4,0.1,0.7,0.2,1.1c0.1,0.3,0.1,0.6,0.2,0.9c0.1,0.4,0.3,0.7,0.4,1.1c0.1,0.3,0.3,0.7,0.5,1  c0.2,0.3,0.3,0.5,0.5,0.8c0.3,0.4,0.5,0.7,0.9,1.1c0.2,0.2,0.4,0.4,0.6,0.6c0.3,0.2,0.5,0.5,0.8,0.7c0.3,0.2,0.6,0.4,0.9,0.6  c0.3,0.2,0.5,0.3,0.8,0.4c0.4,0.2,0.8,0.4,1.3,0.5c0.7,0.2,1.4,0.4,2.2,0.5c0.5,0.1,1.1,0.1,1.6,0.1c0.3,0,0.5,0,0.8-0.1  c0.4,0,0.7-0.1,1-0.2c0.1,0,0.2,0,0.3-0.1c0.3-0.1,0.6-0.2,0.8-0.2c0.5-0.2,0.9-0.4,1.4-0.6c0.2-0.1,0.4-0.2,0.6-0.3  c0.2-0.1,0.4-0.2,0.5-0.3c0.2-0.1,0.4-0.3,0.6-0.4c0.3-0.2,0.5-0.4,0.7-0.6c0.1-0.1,0.2-0.2,0.3-0.3l0.4-0.4l8.7,8.4l-0.4,0.4  c-0.1,0.1-0.2,0.3-0.4,0.4c-0.2,0.2-0.4,0.3-0.5,0.5c-0.1,0.1-0.3,0.2-0.4,0.3c-0.1,0.1-0.2,0.2-0.3,0.3c-0.2,0.1-0.3,0.3-0.5,0.4  c-0.1,0.1-0.1,0.1-0.2,0.2l0,0c-0.1,0.1-0.3,0.2-0.4,0.3c-0.4,0.3-0.8,0.6-1.3,0.9c-0.3,0.2-0.6,0.4-0.9,0.5c-0.3,0.2-0.7,0.4-1,0.5  c-0.3,0.1-0.5,0.3-0.8,0.4c-0.2,0.1-0.4,0.2-0.6,0.3c-0.2,0.1-0.3,0.1-0.5,0.2l0,0c-0.2,0.1-0.5,0.2-0.8,0.3l0,0  c-0.6,0.2-1.1,0.4-1.7,0.5c-0.1,0-0.3,0.1-0.4,0.1l0,0c-0.7,0.2-1.3,0.3-2,0.4c-0.4,0.1-0.9,0.1-1.3,0.2c-0.2,0-0.4,0-0.6,0  c-0.4,0-0.8,0-1.2,0c-0.5,0-1,0-1.6,0c-0.6,0-1.2-0.1-1.8-0.2c-0.5-0.1-1.1-0.2-1.6-0.3c-0.4-0.1-0.7-0.2-1.1-0.3  c-0.3-0.1-0.6-0.2-0.8-0.2c-0.3-0.1-0.5-0.2-0.8-0.3c-0.3-0.1-0.5-0.2-0.8-0.3c-0.2-0.1-0.3-0.1-0.4-0.2c-0.4-0.2-0.7-0.3-1.1-0.5  c-0.3-0.1-0.5-0.3-0.8-0.4c-0.1-0.1-0.2-0.1-0.4-0.2c-0.2-0.1-0.4-0.2-0.6-0.4c-0.2-0.1-0.4-0.3-0.7-0.4c-0.4-0.3-0.8-0.5-1.1-0.8  c-0.3-0.2-0.6-0.5-0.9-0.7c-0.5-0.4-1-0.8-1.4-1.3c-0.3-0.3-0.6-0.6-0.9-0.9c-0.4-0.4-0.8-0.9-1.1-1.4c-0.2-0.3-0.5-0.6-0.7-1  c-0.2-0.3-0.4-0.6-0.6-0.9c-0.1-0.2-0.2-0.3-0.3-0.5c-0.3-0.5-0.5-0.9-0.8-1.4c-0.2-0.4-0.4-0.7-0.5-1.1c-0.1-0.3-0.2-0.5-0.3-0.8  c-0.2-0.5-0.4-1.1-0.6-1.6c-0.1-0.4-0.2-0.7-0.3-1.1c-0.2-0.6-0.3-1.3-0.4-2c-0.2-1-0.2-1.9-0.3-2.9c0-0.4,0-0.9,0-1.3  c0-0.6,0.1-1.1,0.1-1.7c0-0.3,0.1-0.6,0.1-0.9c0.1-0.7,0.2-1.4,0.4-2c0.2-0.7,0.4-1.4,0.6-2.1c0.4-1,0.8-2.1,1.3-3.1  c0.5-0.9,1-1.7,1.5-2.5C5.9,10.2,6,9.9,6.2,9.7c0.3-0.4,0.7-0.9,1.1-1.3c0.3-0.3,0.6-0.7,1-1c0.4-0.4,0.7-0.7,1.1-1  c0.4-0.3,0.8-0.6,1.1-0.9c0.5-0.4,1.1-0.8,1.7-1.1c1-0.6,2.1-1.2,3.2-1.7c0.5-0.2,1-0.4,1.6-0.6c0.3-0.1,0.6-0.2,0.9-0.3  c1.7-0.5,3.5-0.8,5.4-0.8C23.5,1,23.7,1,24,1L24,1z"></path>
<path d="M34.2,23.3c0-0.3,0-0.5-0.1-0.8c-0.1-0.2-0.2-0.5-0.4-0.6c-0.2-0.2-0.4-0.3-0.6-0.4c-0.2-0.1-0.5-0.2-0.7-0.2  c-0.2,0-0.5,0-0.7,0.1c-0.2,0.1-0.4,0.2-0.6,0.4c-0.2,0.2-0.3,0.4-0.4,0.6c-0.1,0.2-0.2,0.5-0.1,0.8c0,0.3,0,0.5,0.1,0.8  c0.1,0.2,0.2,0.5,0.4,0.6c0.2,0.2,0.4,0.3,0.6,0.4c0.2,0.1,0.5,0.2,0.7,0.1c0.3,0,0.5,0,0.7-0.2c0.2-0.1,0.4-0.3,0.6-0.4  c0.2-0.2,0.3-0.4,0.4-0.6C34.1,23.8,34.2,23.6,34.2,23.3z M36.6,27c0,0.2-0.1,0.3-0.3,0.3h-1.4c-0.1,0-0.2-0.1-0.3-0.2  s-0.1-0.3-0.2-0.4l-0.1-0.2c-0.3,0.3-0.6,0.5-1,0.7c-0.4,0.2-0.8,0.2-1.2,0.2c-0.7,0-1.4-0.2-2-0.5c-0.6-0.3-1.1-0.8-1.5-1.5  c-0.4-0.6-0.6-1.3-0.6-2.1c0-0.8,0.2-1.4,0.5-2.1c0.4-0.6,0.8-1.1,1.5-1.5c0.6-0.4,1.3-0.5,2-0.5c0.5,0,0.9,0.1,1.3,0.3  c0.4,0.2,0.7,0.4,1,0.8l0.2-0.7c0-0.1,0.1-0.2,0.1-0.2c0,0,0.1-0.1,0.2-0.1h1.3c0.2,0,0.3,0.1,0.3,0.3V27z"></path>
<path d="M42.2,22.8c0-0.2,0-0.4-0.1-0.6c-0.1-0.2-0.1-0.3-0.2-0.4c-0.1-0.1-0.2-0.2-0.4-0.3c-0.1-0.1-0.3-0.1-0.5-0.1  c-0.2,0-0.3,0-0.5,0.1c-0.1,0.1-0.3,0.2-0.4,0.3c-0.1,0.1-0.2,0.3-0.2,0.4c-0.1,0.2-0.1,0.4-0.1,0.6V27c0,0.1,0,0.2-0.1,0.2  c-0.1,0-0.1,0.1-0.2,0.1h-1.8c-0.2,0-0.3-0.1-0.3-0.3v-7.4c0-0.2,0.1-0.3,0.3-0.3h1.1c0.1,0,0.2,0,0.3,0.1c0.1,0.1,0.1,0.2,0.2,0.3  l0.2,0.7c0.3-0.4,0.6-0.7,1-0.9c0.4-0.2,0.8-0.3,1.3-0.3c0.4,0,0.8,0.1,1.2,0.3c0.4,0.2,0.7,0.5,1,0.9c0.3-0.4,0.7-0.7,1.1-0.9  c0.4-0.2,0.9-0.3,1.3-0.3c0.5,0,0.9,0.1,1.3,0.3c0.4,0.2,0.7,0.4,0.9,0.8c0.2,0.3,0.4,0.7,0.6,1.2c0.1,0.4,0.2,0.9,0.2,1.4V27  c0,0.2-0.1,0.3-0.3,0.3h-1.8c-0.2,0-0.3-0.1-0.3-0.3v-4.2c0-0.2,0-0.4-0.1-0.6c-0.1-0.2-0.1-0.3-0.2-0.4c-0.1-0.1-0.2-0.2-0.4-0.3  c-0.1-0.1-0.3-0.1-0.5-0.1c-0.2,0-0.3,0-0.5,0.1c-0.1,0.1-0.3,0.2-0.4,0.3c-0.1,0.1-0.2,0.3-0.3,0.4c-0.1,0.2-0.1,0.4-0.1,0.6l0,4.2  c0,0.2-0.1,0.3-0.3,0.3h-1.8c-0.2,0-0.3-0.1-0.3-0.3V22.8z"></path>
<path d="M52.4,23.3c0,0.2,0,0.5,0.1,0.7c0.1,0.2,0.2,0.4,0.4,0.6c0.2,0.2,0.4,0.3,0.6,0.4c0.2,0.1,0.5,0.2,0.8,0.2  c0.3,0,0.6-0.1,0.8-0.2c0.2-0.1,0.4-0.2,0.6-0.4c0.2-0.2,0.3-0.4,0.4-0.6c0.1-0.2,0.1-0.5,0.1-0.8c0-0.3,0-0.5-0.1-0.8  c-0.1-0.2-0.2-0.5-0.4-0.6c-0.2-0.2-0.4-0.3-0.6-0.4c-0.2-0.1-0.5-0.2-0.8-0.2c-0.3,0-0.5,0.1-0.7,0.2c-0.2,0.1-0.4,0.3-0.6,0.5  c-0.2,0.2-0.3,0.4-0.4,0.6C52.4,22.8,52.4,23.1,52.4,23.3z M50.2,19.6c0-0.1,0-0.2,0.1-0.2c0.1,0,0.1-0.1,0.2-0.1h1.3  c0.1,0,0.1,0,0.2,0.1c0,0.1,0.1,0.1,0.1,0.2c0,0.1,0,0.2,0.1,0.3l0.1,0.5c0.3-0.4,0.6-0.6,1-0.8c0.4-0.2,0.8-0.3,1.3-0.3  c0.3,0,0.7,0,1,0.1c0.3,0.1,0.6,0.2,0.9,0.4c0.3,0.2,0.5,0.4,0.8,0.6c0.2,0.2,0.4,0.5,0.6,0.8c0.2,0.3,0.3,0.6,0.4,1  c0.1,0.4,0.1,0.7,0.1,1.1c0,0.6-0.1,1.1-0.3,1.6c-0.2,0.5-0.5,0.9-0.8,1.3c-0.3,0.4-0.7,0.7-1.2,0.9c-0.5,0.2-1,0.3-1.6,0.3  c-0.4,0-0.8-0.1-1.1-0.2c-0.3-0.2-0.7-0.4-0.9-0.6v2.9c0,0.2-0.1,0.3-0.3,0.3h-1.8c-0.1,0-0.2,0-0.2-0.1c-0.1,0-0.1-0.1-0.1-0.2  V19.6z"></path>
<path d="M64.3,19.6c0-0.1,0-0.2,0.1-0.2c0.1,0,0.1-0.1,0.2-0.1h1.8c0.2,0,0.3,0.1,0.3,0.3V27c0,0.2-0.1,0.3-0.3,0.3h-1.2  c-0.1,0-0.2,0-0.3-0.1c-0.1-0.1-0.1-0.2-0.2-0.3l-0.2-0.7c-0.3,0.4-0.7,0.7-1.1,0.9c-0.4,0.2-0.9,0.3-1.4,0.3  c-0.4,0-0.9-0.1-1.3-0.3c-0.5-0.2-0.8-0.6-1.2-1.1c-0.3-0.5-0.5-1.2-0.5-2.1v-4.4c0-0.2,0.1-0.3,0.3-0.3h1.8c0.2,0,0.3,0.1,0.3,0.3  v4.2c0,0.2,0,0.4,0.1,0.5c0.1,0.2,0.2,0.3,0.3,0.4c0.1,0.1,0.3,0.2,0.5,0.3c0.2,0.1,0.4,0.1,0.6,0.1c0.1,0,0.3,0,0.4-0.1  c0.2,0,0.3-0.1,0.4-0.2s0.3-0.3,0.4-0.4c0.1-0.2,0.1-0.4,0.1-0.7V19.6z"></path>
<path d="M67.5,26.1c-0.1-0.1-0.2-0.2-0.2-0.3s0-0.2,0.1-0.3l0.9-0.9c0.1-0.1,0.1-0.1,0.2-0.1c0.1,0,0.2,0,0.2,0.1  c0.5,0.5,1.1,0.7,1.5,0.7c0.3,0,0.5,0,0.7-0.1c0.1-0.1,0.2-0.2,0.2-0.4c0-0.1,0-0.2-0.1-0.2c0-0.1-0.1-0.1-0.2-0.2  c-0.1-0.1-0.2-0.1-0.4-0.2c-0.2-0.1-0.4-0.1-0.6-0.2c-0.4-0.1-0.8-0.3-1-0.4c-0.3-0.2-0.5-0.4-0.7-0.6c-0.2-0.2-0.3-0.5-0.4-0.8  c-0.1-0.3-0.1-0.6-0.1-1c0-0.3,0.1-0.6,0.2-0.9c0.1-0.3,0.3-0.5,0.6-0.7c0.3-0.2,0.6-0.4,0.9-0.5c0.4-0.1,0.8-0.2,1.3-0.2  c0.4,0,0.8,0.1,1.1,0.2c0.3,0.1,0.6,0.2,0.8,0.4c0.1,0.1,0.2,0.2,0.3,0.3c0.1,0.1,0.2,0.2,0.4,0.3c0.1,0.1,0.1,0.2,0.1,0.2  c0,0.1-0.1,0.2-0.2,0.2l-1,0.8c-0.1,0.1-0.1,0.1-0.2,0.1c-0.1,0-0.1,0-0.2-0.1c-0.1-0.1-0.1-0.1-0.2-0.2c-0.1,0-0.1-0.1-0.2-0.1  c0,0-0.1-0.1-0.2-0.1c-0.1,0-0.1-0.1-0.2-0.1c-0.1,0-0.3-0.1-0.5-0.1c-0.2,0-0.4,0-0.5,0.1c-0.1,0.1-0.2,0.2-0.2,0.3  c0,0.1,0,0.1,0.1,0.2c0,0.1,0.1,0.1,0.1,0.1c0.1,0,0.2,0.1,0.3,0.1c0.1,0,0.3,0.1,0.5,0.1c0.3,0.1,0.5,0.2,0.7,0.2  c0.8,0.3,1.3,0.6,1.6,1c0.3,0.4,0.4,1,0.4,1.5c0,0.4-0.1,0.8-0.2,1.1c-0.2,0.3-0.4,0.6-0.7,0.8c-0.3,0.2-0.6,0.4-1,0.5  c-0.4,0.1-0.8,0.2-1.1,0.2c-0.3,0-0.6,0-0.9-0.1c-0.3,0-0.5-0.1-0.8-0.2c-0.3-0.1-0.5-0.2-0.7-0.4C67.9,26.6,67.7,26.4,67.5,26.1z"></path>
</svg>